STARTFONT 2.1
COMMENT
COMMENT Converted from OpenType font "Q:\font stuff\winfont\BerlinerGroteskBQ-Light.otf" by "otf2bdf 3.0".
COMMENT
FONT -FreeType-Berliner Grotesk BQ-Medium-R-Normal--34-340-72-72-P-136-ISO10646-1
SIZE 34 72 72
FONTBOUNDINGBOX 34 40 -3 -9
STARTPROPERTIES 19
FOUNDRY "FreeType"
FAMILY_NAME "Berliner Grotesk BQ"
WEIGHT_NAME "Medium"
SLANT "R"
SETWIDTH_NAME "Normal"
ADD_STYLE_NAME ""
PIXEL_SIZE 24
POINT_SIZE 340
RESOLUTION_X 72
RESOLUTION_Y 72
SPACING "P"
AVERAGE_WIDTH 136
CHARSET_REGISTRY "ISO10646"
CHARSET_ENCODING "1"
FONT_ASCENT 31
FONT_DESCENT 6
COPYRIGHT "(c) COPYRIGHT H. BERTHOLD AG 1992 Alle Rechte vorbehalten."
_OTF_FONTFILE "Q:\font stuff\winfont\BerlinerGroteskBQ-Light.otf"
_OTF_PSNAME "BerlinerGroteskBQ-Light"
ENDPROPERTIES
CHARS 182
STARTCHAR 0020
ENCODING 32
SWIDTH 264 0
DWIDTH 9 0
BBX 0 0 0 0
BITMAP
ENDCHAR
STARTCHAR 0021
ENCODING 33
SWIDTH 264 0
DWIDTH 9 0
BBX 3 24 3 0
BITMAP
E0
E0
E0
E0
E0
E0
E0
E0
E0
E0
E0
E0
E0
E0
E0
E0
E0
60
00
00
E0
E0
E0
E0
ENDCHAR
STARTCHAR 0024
ENCODING 36
SWIDTH 470 0
DWIDTH 16 0
BBX 12 29 2 -2
BITMAP
0600
0600
0600
1FC0
7FC0
7FC0
E6C0
E600
E600
F600
7E00
7E00
3E00
1F80
07C0
07C0
07E0
06E0
0670
0670
0670
C670
E6E0
FFE0
FFC0
7F80
0600
0600
0600
ENDCHAR
STARTCHAR 0025
ENCODING 37
SWIDTH 882 0
DWIDTH 30 0
BBX 27 24 1 -1
BITMAP
3E006000
7F006000
F180E000
E180C000
C0C1C000
C0C18000
C0C38000
C0C30000
C0C30000
C0C61F00
C0C63F80
60CE79C0
718C70C0
3F1C6060
1E186060
00386060
00306060
00306060
00606060
00606060
00607040
00C038C0
00C03F80
00C00F00
ENDCHAR
STARTCHAR 0026
ENCODING 38
SWIDTH 529 0
DWIDTH 18 0
BBX 15 20 1 0
BITMAP
0780
0FC0
1FE0
1CE0
1CE0
1CE0
1CE4
0FCE
0F8E
1F0E
3F0E
7B8C
F3DC
E1FC
E0F8
E0F8
E1F0
7FFC
7FDE
1F0E
ENDCHAR
STARTCHAR 0028
ENCODING 40
SWIDTH 352 0
DWIDTH 12 0
BBX 9 28 3 -4
BITMAP
0300
0780
0F00
1E00
1C00
3800
3800
7000
7000
F000
E000
E000
E000
E000
E000
E000
E000
E000
7000
7000
7000
3800
3800
1C00
1E00
0F00
0780
0300
ENDCHAR
STARTCHAR 0029
ENCODING 41
SWIDTH 352 0
DWIDTH 12 0
BBX 8 28 1 -4
BITMAP
E0
F0
F0
78
1C
1C
0E
0E
07
07
07
07
07
07
07
07
07
07
07
06
0E
0E
1C
1C
78
F0
F0
E0
ENDCHAR
STARTCHAR 002A
ENCODING 42
SWIDTH 352 0
DWIDTH 12 0
BBX 10 10 2 13
BITMAP
0800
1C00
1C00
FFC0
FFC0
FF00
1E00
3F00
7380
3300
ENDCHAR
STARTCHAR 002B
ENCODING 43
SWIDTH 676 0
DWIDTH 23 0
BBX 19 19 2 1
BITMAP
00E000
00E000
00E000
00E000
00E000
00E000
00E000
00E000
FFFFE0
FFFFE0
FFFFE0
00E000
00E000
00E000
00E000
00E000
00E000
00E000
00E000
ENDCHAR
STARTCHAR 002C
ENCODING 44
SWIDTH 205 0
DWIDTH 7 0
BBX 4 8 2 -3
BITMAP
60
F0
F0
F0
E0
E0
E0
C0
ENDCHAR
STARTCHAR 002D
ENCODING 45
SWIDTH 323 0
DWIDTH 11 0
BBX 9 3 1 10
BITMAP
FF00
FF80
FF00
ENDCHAR
STARTCHAR 002E
ENCODING 46
SWIDTH 205 0
DWIDTH 7 0
BBX 4 4 2 1
BITMAP
F0
F0
F0
60
ENDCHAR
STARTCHAR 002F
ENCODING 47
SWIDTH 382 0
DWIDTH 13 0
BBX 12 24 0 0
BITMAP
00F0
00F0
00F0
01E0
01E0
01C0
03C0
0380
0380
0780
0700
0F00
0E00
0E00
1E00
1C00
1C00
3800
3800
7800
7000
F000
F000
E000
ENDCHAR
STARTCHAR 0030
ENCODING 48
SWIDTH 558 0
DWIDTH 19 0
BBX 17 24 1 0
BITMAP
07E000
1FF800
1FFC00
3C1E00
700F00
700700
E00300
E00380
E00380
E00380
E00380
E00380
E00380
E00380
E00380
E00380
E00380
F00700
F00700
780E00
7C1E00
3FFC00
1FF800
03F000
ENDCHAR
STARTCHAR 0031
ENCODING 49
SWIDTH 382 0
DWIDTH 13 0
BBX 10 24 1 0
BITMAP
0E00
1E00
3E00
FE00
FE00
CE00
0E00
0E00
0E00
0E00
0E00
0E00
0E00
0E00
0E00
0E00
0E00
0E00
0E00
0E00
0E00
3F80
7FC0
7FC0
ENDCHAR
STARTCHAR 0032
ENCODING 50
SWIDTH 470 0
DWIDTH 16 0
BBX 13 24 1 0
BITMAP
0F80
3FC0
7FE0
70F0
E070
E038
E038
F038
FF38
7F78
3E78
00F0
01E0
01E0
03C0
0780
0F00
1E00
3C38
7838
7838
FFF8
FFF8
7FF8
ENDCHAR
STARTCHAR 0033
ENCODING 51
SWIDTH 470 0
DWIDTH 16 0
BBX 15 24 0 0
BITMAP
7FF0
7FF8
7FF0
00E0
01E0
03C0
0780
0FE0
0FF0
06F8
003C
001C
000E
000E
000E
000E
000E
001C
001C
603C
F078
FFF0
7FE0
1FC0
ENDCHAR
STARTCHAR 0034
ENCODING 52
SWIDTH 529 0
DWIDTH 18 0
BBX 15 24 1 0
BITMAP
0060
00F0
01F0
01F0
03F0
03F0
07F0
0770
0F70
0E70
1C70
1C70
3870
3870
7070
7070
FFFE
FFFE
FFFE
0070
0070
0070
0070
0070
ENDCHAR
STARTCHAR 0035
ENCODING 53
SWIDTH 470 0
DWIDTH 16 0
BBX 15 24 0 0
BITMAP
3FF0
7FF0
7FF0
7000
7000
7000
7000
7F80
7FE0
7FF8
0078
003C
001E
000E
000E
000E
000E
000E
001C
001C
F038
FFF0
7FE0
1F80
ENDCHAR
STARTCHAR 0036
ENCODING 54
SWIDTH 558 0
DWIDTH 19 0
BBX 17 24 1 0
BITMAP
00E000
01E000
01E000
03C000
070000
0F0000
0FF000
1FFC00
1FFE00
3C1E00
780700
700700
700380
E00380
E00380
E00380
E00380
E00380
700780
700780
3C1F00
3FFF00
0FFC00
07F000
ENDCHAR
STARTCHAR 0037
ENCODING 55
SWIDTH 500 0
DWIDTH 17 0
BBX 15 24 1 0
BITMAP
7FFC
FFFE
FFFE
E03C
E038
E078
E070
00F0
00E0
01E0
01C0
0380
0380
0700
0F00
0E00
1E00
1C00
3C00
3800
7800
F000
F000
6000
ENDCHAR
STARTCHAR 0038
ENCODING 56
SWIDTH 558 0
DWIDTH 19 0
BBX 16 24 1 0
BITMAP
03E0
0FF0
1FF8
1C38
1818
181C
181C
1C38
1FF8
1FF8
3FFC
381E
700E
6007
E007
E007
E007
E007
F007
700E
3C1E
3FFC
0FF8
03E0
ENDCHAR
STARTCHAR 0039
ENCODING 57
SWIDTH 558 0
DWIDTH 19 0
BBX 17 24 1 0
BITMAP
0FF800
1FFC00
3FFE00
7C1E00
700700
F00700
E00380
E00380
E00380
E00380
E00380
E00780
F00700
780E00
3C1E00
3FFC00
0FFC00
07F800
007800
00F000
01E000
03C000
07C000
038000
ENDCHAR
STARTCHAR 003A
ENCODING 58
SWIDTH 264 0
DWIDTH 9 0
BBX 4 18 3 0
BITMAP
60
F0
F0
F0
40
00
00
00
00
00
00
00
00
00
F0
F0
F0
F0
ENDCHAR
STARTCHAR 003B
ENCODING 59
SWIDTH 264 0
DWIDTH 9 0
BBX 4 22 3 -4
BITMAP
60
F0
F0
F0
00
00
00
00
00
00
00
00
00
00
E0
F0
F0
F0
F0
E0
E0
C0
ENDCHAR
STARTCHAR 003D
ENCODING 61
SWIDTH 676 0
DWIDTH 23 0
BBX 22 9 0 5
BITMAP
FFFFFC
FFFFFC
FFFFFC
000000
000000
000000
FFFFFC
FFFFFC
FFFFFC
ENDCHAR
STARTCHAR 003F
ENCODING 63
SWIDTH 382 0
DWIDTH 13 0
BBX 10 24 2 0
BITMAP
1E00
7F80
7F80
E1C0
E1C0
E1C0
61C0
0380
0780
0F00
1E00
3C00
7000
7000
7000
7300
7F80
3F80
1F00
0000
1C00
1C00
1C00
1C00
ENDCHAR
STARTCHAR 0041
ENCODING 65
SWIDTH 558 0
DWIDTH 19 0
BBX 19 24 0 0
BITMAP
00E000
01E000
01E000
01F000
01F000
03F000
03B800
07B800
073800
073C00
0F1C00
0E1C00
0E1E00
1E0E00
1C0E00
1C0F00
3FFF00
3FFF00
3FFF80
780380
7003C0
F001C0
F001E0
E001C0
ENDCHAR
STARTCHAR 0042
ENCODING 66
SWIDTH 558 0
DWIDTH 19 0
BBX 16 24 2 0
BITMAP
FFC0
FFE0
FFF0
E0F0
E070
E070
E070
E0E0
FFF8
FFFC
FFFC
E03E
E00E
E00F
E007
E007
E007
E007
E00F
E00E
E03E
FFFC
FFF8
FFF0
ENDCHAR
STARTCHAR 0043
ENCODING 67
SWIDTH 529 0
DWIDTH 18 0
BBX 16 24 1 0
BITMAP
01FE
07FE
0FFF
1F0F
3C00
7800
7000
E000
E000
E000
E000
E000
E000
E000
E000
F000
7000
7800
3800
3C00
1F0E
0FFF
07FF
01FC
ENDCHAR
STARTCHAR 0044
ENCODING 68
SWIDTH 617 0
DWIDTH 21 0
BBX 17 24 2 0
BITMAP
FF8000
FFF000
FFF800
E0FC00
E03E00
E01F00
E00F00
E00780
E00780
E00780
E00380
E00380
E00380
E00380
E00380
E00780
E00700
E00F00
E01E00
E03E00
E0FC00
FFF000
FFE000
FF0000
ENDCHAR
STARTCHAR 0045
ENCODING 69
SWIDTH 470 0
DWIDTH 16 0
BBX 12 24 2 0
BITMAP
FFF0
FFF0
FFF0
E000
E000
E000
E000
E000
FFE0
FFF0
FFE0
E000
E000
E000
E000
E000
E000
E000
E000
E000
E000
FFF0
FFF0
FFF0
ENDCHAR
STARTCHAR 0046
ENCODING 70
SWIDTH 470 0
DWIDTH 16 0
BBX 12 24 2 0
BITMAP
FFF0
FFF0
FFF0
E000
E000
E000
E000
E000
FFE0
FFE0
FFE0
E000
E000
E000
E000
E000
E000
E000
E000
E000
E000
E000
E000
E000
ENDCHAR
STARTCHAR 0047
ENCODING 71
SWIDTH 676 0
DWIDTH 23 0
BBX 20 24 1 0
BITMAP
01FE00
07FFC0
0FFFE0
1F00F0
3C0070
380000
700000
700000
E00000
E00000
E00000
E03FF0
E03FF0
E03FF0
E00070
F00070
700070
780070
3C0070
3C0070
1F01F0
0FFFF0
07FFF0
01FF70
ENDCHAR
STARTCHAR 0048
ENCODING 72
SWIDTH 617 0
DWIDTH 21 0
BBX 16 24 2 0
BITMAP
E007
E007
E007
E007
E007
E007
E007
E007
FFFF
FFFF
FFFF
E007
E007
E007
E007
E007
E007
E007
E007
E007
E007
E007
E007
E007
ENDCHAR
STARTCHAR 0049
ENCODING 73
SWIDTH 235 0
DWIDTH 8 0
BBX 3 24 2 0
BITMAP
E0
E0
E0
E0
E0
E0
E0
E0
E0
E0
E0
E0
E0
E0
E0
E0
E0
E0
E0
E0
E0
E0
E0
E0
ENDCHAR
STARTCHAR 004A
ENCODING 74
SWIDTH 441 0
DWIDTH 15 0
BBX 12 24 0 0
BITMAP
1FF0
1FF0
1FF0
0070
0070
0070
0070
0070
0070
0070
0070
0070
0070
0070
0070
0070
3C70
7E70
FE70
E0E0
E1E0
FFC0
7F80
1F00
ENDCHAR
STARTCHAR 004B
ENCODING 75
SWIDTH 529 0
DWIDTH 18 0
BBX 16 24 2 0
BITMAP
E006
E00F
E00E
E01E
E03C
E078
E078
E0F0
E1E0
E3C0
E780
EF00
EE00
FC00
FC00
FC00
FF00
EF80
E7C0
E1F0
E0F8
E07E
E01F
E00E
ENDCHAR
STARTCHAR 004C
ENCODING 76
SWIDTH 382 0
DWIDTH 13 0
BBX 10 24 2 0
BITMAP
E000
E000
E000
E000
E000
E000
E000
E000
E000
E000
E000
E000
E000
E000
E000
E000
E000
E000
E000
E000
E000
FFC0
FFC0
FFC0
ENDCHAR
STARTCHAR 004D
ENCODING 77
SWIDTH 705 0
DWIDTH 24 0
BBX 19 24 2 0
BITMAP
E000E0
F000E0
F803E0
FC03E0
FE07E0
EF1FE0
EFBEE0
E7FCE0
E3F8E0
E1F0E0
E0E0E0
E000E0
E000E0
E000E0
E000E0
E000E0
E000E0
E000E0
E000E0
E000E0
E000E0
E000E0
E000E0
E000E0
ENDCHAR
STARTCHAR 004E
ENCODING 78
SWIDTH 647 0
DWIDTH 22 0
BBX 17 24 2 0
BITMAP
E00380
F00380
F00380
F80380
FC0380
FC0380
FE0380
EE0380
E70380
E78380
E3C380
E1C380
E1E380
E0F380
E07380
E07B80
E03B80
E01F80
E01F80
E00F80
E00780
E00780
F00380
E00180
ENDCHAR
STARTCHAR 004F
ENCODING 79
SWIDTH 676 0
DWIDTH 23 0
BBX 21 24 1 0
BITMAP
01FC00
07FF00
0FFF80
1E03C0
3C01E0
7800F0
700070
F00070
E00038
E00038
E00038
E00038
E00038
E00038
E00038
E00038
700078
700070
7800F0
3C01E0
1E07C0
0FFF80
07FF00
01FC00
ENDCHAR
STARTCHAR 0050
ENCODING 80
SWIDTH 470 0
DWIDTH 16 0
BBX 14 24 2 0
BITMAP
FF80
FFE0
FFF0
E078
E038
E01C
E01C
E01C
E01C
E01C
E038
E078
E0F0
FFE0
FFC0
FF00
E000
E000
E000
E000
E000
E000
E000
E000
ENDCHAR
STARTCHAR 0051
ENCODING 81
SWIDTH 676 0
DWIDTH 23 0
BBX 22 24 1 0
BITMAP
01FE00
07FF00
0FFFC0
1E03C0
3C01E0
7800F0
700070
700030
E00038
E00038
E00038
E00038
E00038
E00038
E00038
E00038
F07838
707E70
787FF0
3C03E0
3E03E0
0FFFFC
07FE7C
01F818
ENDCHAR
STARTCHAR 0052
ENCODING 82
SWIDTH 529 0
DWIDTH 18 0
BBX 15 24 2 0
BITMAP
FFE0
FFF0
FFF8
E07C
E01C
E01E
E00E
E00E
E00E
E00E
E00E
E01C
E03C
E078
E1F0
FFE0
FF80
FF00
EF80
E3E0
E1FC
E0FE
E03E
E01C
ENDCHAR
STARTCHAR 0053
ENCODING 83
SWIDTH 470 0
DWIDTH 16 0
BBX 12 24 2 0
BITMAP
1F80
3FC0
7FC0
F1C0
E000
E000
E000
F000
7800
3C00
1F00
0F80
07C0
03C0
01E0
00F0
0070
0070
0070
E070
F0E0
FFE0
7FC0
1F00
ENDCHAR
STARTCHAR 0054
ENCODING 84
SWIDTH 470 0
DWIDTH 16 0
BBX 15 24 0 1
BITMAP
7FFE
FFFE
7FFE
0380
0380
0380
0380
0380
0380
0380
0380
0380
0380
0380
0380
0380
0380
0380
0380
0380
0380
0380
0380
0380
ENDCHAR
STARTCHAR 0055
ENCODING 85
SWIDTH 617 0
DWIDTH 21 0
BBX 16 24 2 0
BITMAP
E007
E007
E007
E007
E007
E007
E007
E007
E007
E007
E007
E007
E007
E007
E007
E007
E007
E007
E007
F00F
F81F
FFFF
7FFF
1FE7
ENDCHAR
STARTCHAR 0056
ENCODING 86
SWIDTH 529 0
DWIDTH 18 0
BBX 18 24 0 0
BITMAP
600380
F003C0
F003C0
F003C0
700380
780380
380700
380700
3C0700
1C0E00
1C0E00
1E0E00
0E1C00
0E1C00
0E1C00
071800
073800
073800
03B000
03F000
03F000
01E000
01E000
00C000
ENDCHAR
STARTCHAR 0057
ENCODING 87
SWIDTH 764 0
DWIDTH 26 0
BBX 24 24 0 0
BITMAP
606303
F0E707
F0E707
F07706
707706
78770E
783E0C
383E1C
3C3C18
1C1C18
1C1838
1C1830
1E1C30
0E1C70
0E3C60
0E3660
073660
0777E0
0767C0
03E7C0
03E7C0
03E780
03C780
01C300
ENDCHAR
STARTCHAR 0058
ENCODING 88
SWIDTH 529 0
DWIDTH 18 0
BBX 16 24 0 0
BITMAP
3006
7807
780E
380E
1C1C
1C1C
0E38
0F38
0770
03E0
03E0
03E0
03E0
0760
0630
0E30
0C18
1C1C
1C0C
380E
780E
7007
F007
6003
ENDCHAR
STARTCHAR 0059
ENCODING 89
SWIDTH 470 0
DWIDTH 16 0
BBX 14 24 1 1
BITMAP
E01C
E03C
F03C
7078
3870
3CF0
1CE0
1FC0
0F80
0780
0700
0700
0700
0700
0700
0700
0700
0700
0700
0700
0700
0700
0700
0700
ENDCHAR
STARTCHAR 005A
ENCODING 90
SWIDTH 470 0
DWIDTH 16 0
BBX 16 24 0 0
BITMAP
1FFE
3FFF
1FFE
001C
003C
0038
0078
00F0
00E0
01E0
03C0
03C0
0780
0780
0F00
0E00
1E00
1C00
3800
7800
7800
FFFE
FFFE
7FFC
ENDCHAR
STARTCHAR 005B
ENCODING 91
SWIDTH 323 0
DWIDTH 11 0
BBX 8 28 4 -4
BITMAP
FE
FF
FE
E0
E0
E0
E0
E0
E0
E0
E0
E0
E0
E0
E0
E0
E0
E0
E0
E0
E0
E0
E0
E0
E0
FE
FF
FE
ENDCHAR
STARTCHAR 005C
ENCODING 92
SWIDTH 352 0
DWIDTH 12 0
BBX 10 24 1 0
BITMAP
E000
E000
6000
7000
7000
3000
3800
3800
3800
1800
1C00
1C00
0C00
0E00
0E00
0600
0700
0700
0300
0380
0380
0380
0180
01C0
ENDCHAR
STARTCHAR 005D
ENCODING 93
SWIDTH 323 0
DWIDTH 11 0
BBX 8 28 0 -4
BITMAP
7F
FF
7F
07
07
07
07
07
07
07
07
07
07
07
07
07
07
07
07
07
07
07
07
07
07
7F
FF
7F
ENDCHAR
STARTCHAR 005F
ENCODING 95
SWIDTH 500 0
DWIDTH 17 0
BBX 17 3 0 -7
BITMAP
FFFF80
FFFF80
FFFF80
ENDCHAR
STARTCHAR 0060
ENCODING 96
SWIDTH 264 0
DWIDTH 9 0
BBX 5 5 -1 19
BITMAP
E0
E0
70
38
18
ENDCHAR
STARTCHAR 0061
ENCODING 97
SWIDTH 500 0
DWIDTH 17 0
BBX 14 18 1 0
BITMAP
0FE0
1FF8
3FF8
183C
001C
0FFC
1FFC
7FFC
787C
F01C
E01C
E01C
E01C
F01C
783C
3FFC
1FFC
07CC
ENDCHAR
STARTCHAR 0062
ENCODING 98
SWIDTH 529 0
DWIDTH 18 0
BBX 15 24 2 0
BITMAP
E000
E000
E000
E000
E000
E000
FFC0
FFE0
FFF0
F078
E03C
E01C
E00E
E00E
E00E
E00E
E00E
E00E
E00E
E01E
F01C
FFF8
FFF0
FFC0
ENDCHAR
STARTCHAR 0063
ENCODING 99
SWIDTH 382 0
DWIDTH 13 0
BBX 11 18 1 -1
BITMAP
1FC0
3FC0
3FC0
7800
6000
E000
E000
E000
E000
E000
E000
F000
7000
7800
3C00
1FE0
0FE0
03C0
ENDCHAR
STARTCHAR 0064
ENCODING 100
SWIDTH 529 0
DWIDTH 18 0
BBX 15 24 1 0
BITMAP
000E
000E
000E
000E
000E
000E
07CE
1FFE
3FFE
781E
700E
700E
E00E
E00E
E00E
E00E
E00E
E00E
F00E
701E
7C3E
3FFE
1FFE
0FCC
ENDCHAR
STARTCHAR 0065
ENCODING 101
SWIDTH 470 0
DWIDTH 16 0
BBX 14 18 1 0
BITMAP
0F80
1FE0
3FF0
6078
6038
FFF8
FFF8
FFF8
E000
E000
E000
E000
7000
7000
3800
1FF8
0FFC
01F8
ENDCHAR
STARTCHAR 0066
ENCODING 102
SWIDTH 235 0
DWIDTH 8 0
BBX 8 24 0 0
BITMAP
0F
1F
3F
38
38
38
FF
FF
FF
38
38
38
38
38
38
38
38
38
38
38
38
38
38
18
ENDCHAR
STARTCHAR 0067
ENCODING 103
SWIDTH 500 0
DWIDTH 17 0
BBX 15 22 1 -4
BITMAP
07FE
1FFE
3FFE
781E
F00E
E00E
E00E
E00E
E00E
701C
7FFC
3FF0
1FC0
3C00
3FF8
3FFC
3FFE
001E
C01E
FFFC
7FF8
3FC0
ENDCHAR
STARTCHAR 0068
ENCODING 104
SWIDTH 470 0
DWIDTH 16 0
BBX 12 24 2 0
BITMAP
E000
E000
E000
E000
E000
E000
FF80
FFE0
FFE0
F070
E070
E070
E070
E070
E070
E070
E070
E070
E070
E070
E070
E070
E070
E070
ENDCHAR
STARTCHAR 0069
ENCODING 105
SWIDTH 205 0
DWIDTH 7 0
BBX 3 24 2 0
BITMAP
E0
E0
E0
E0
C0
00
E0
E0
E0
E0
E0
E0
E0
E0
E0
E0
E0
E0
E0
E0
E0
E0
E0
C0
ENDCHAR
STARTCHAR 006A
ENCODING 106
SWIDTH 205 0
DWIDTH 7 0
BBX 5 28 0 -4
BITMAP
10
38
38
38
38
00
38
38
38
38
38
38
38
38
38
38
38
38
38
38
38
38
38
38
38
F8
F8
F0
ENDCHAR
STARTCHAR 006B
ENCODING 107
SWIDTH 411 0
DWIDTH 14 0
BBX 12 24 2 0
BITMAP
E000
E000
E000
E000
E000
E000
E060
E0F0
E0E0
E1E0
E1C0
E380
E780
EF00
EE00
FC00
FC00
FC00
FF00
EF00
E7C0
E3E0
E1F0
E0E0
ENDCHAR
STARTCHAR 006C
ENCODING 108
SWIDTH 205 0
DWIDTH 7 0
BBX 3 24 2 0
BITMAP
E0
E0
E0
E0
E0
E0
E0
E0
E0
E0
E0
E0
E0
E0
E0
E0
E0
E0
E0
E0
E0
E0
E0
E0
ENDCHAR
STARTCHAR 006D
ENCODING 109
SWIDTH 764 0
DWIDTH 26 0
BBX 21 18 2 0
BITMAP
6783C0
FFCFF0
FFFFF0
F0F878
E07038
E07038
E07038
E07038
E07038
E07038
E07038
E07038
E07038
E07038
E07038
E07038
E07038
E07038
ENDCHAR
STARTCHAR 006E
ENCODING 110
SWIDTH 470 0
DWIDTH 16 0
BBX 12 18 2 0
BITMAP
CFC0
FFE0
FFF0
F0F0
E070
E070
E070
E070
E070
E070
E070
E070
E070
E070
E070
E070
E070
E070
ENDCHAR
STARTCHAR 006F
ENCODING 111
SWIDTH 529 0
DWIDTH 18 0
BBX 16 18 1 0
BITMAP
07F0
1FF8
3FFC
781E
7006
F007
E007
E007
E007
E007
E007
F007
F007
780E
3C0E
3FFC
0FF8
07E0
ENDCHAR
STARTCHAR 0070
ENCODING 112
SWIDTH 529 0
DWIDTH 18 0
BBX 15 22 2 -4
BITMAP
CFC0
FFF0
FFF8
F07C
E01C
E01E
E00E
E00E
E00E
E00E
E00E
E00E
E00E
E01C
F03C
FFF8
FFF0
FFC0
E000
E000
E000
E000
ENDCHAR
STARTCHAR 0071
ENCODING 113
SWIDTH 529 0
DWIDTH 18 0
BBX 15 22 1 -4
BITMAP
03E6
1FFE
3FFE
3C3E
781E
F00E
E00E
E00E
E00E
E00E
E00E
E00E
E00E
700E
7C0E
3FFE
0FFE
07FE
000E
000E
000E
000E
ENDCHAR
STARTCHAR 0072
ENCODING 114
SWIDTH 294 0
DWIDTH 10 0
BBX 7 18 2 0
BITMAP
CE
FE
FE
FC
F0
E0
E0
E0
E0
E0
E0
E0
E0
E0
E0
E0
E0
E0
ENDCHAR
STARTCHAR 0073
ENCODING 115
SWIDTH 382 0
DWIDTH 13 0
BBX 12 18 1 0
BITMAP
1F80
7FE0
FF80
E000
E000
F000
7C00
3F00
07C0
01E0
00E0
0070
0070
0070
F0F0
FFE0
FFC0
3F80
ENDCHAR
STARTCHAR 0074
ENCODING 116
SWIDTH 264 0
DWIDTH 9 0
BBX 9 23 0 0
BITMAP
1800
3800
3800
3800
3800
7F00
FF00
FF00
3800
3800
3800
3800
3800
3800
3800
3800
3800
3800
3800
3800
3F00
1F80
0F00
ENDCHAR
STARTCHAR 0075
ENCODING 117
SWIDTH 470 0
DWIDTH 16 0
BBX 12 18 2 0
BITMAP
E070
E070
E070
E070
E070
E070
E070
E070
E070
E070
E070
E070
E070
E070
F0F0
7FF0
7FF0
1F30
ENDCHAR
STARTCHAR 0076
ENCODING 118
SWIDTH 411 0
DWIDTH 14 0
BBX 13 18 0 0
BITMAP
E038
F038
F038
7078
7070
3070
30E0
30E0
18E0
19C0
1DC0
0F80
0F80
0F80
0F00
0F00
0F00
0600
ENDCHAR
STARTCHAR 0077
ENCODING 119
SWIDTH 588 0
DWIDTH 20 0
BBX 19 18 0 0
BITMAP
F1C0E0
F1E0E0
F1E0E0
71E0C0
71E1C0
71E1C0
30E180
38E380
39F380
1DF380
1DF700
1DF700
0FBF00
0FBE00
0F9E00
079E00
071E00
070C00
ENDCHAR
STARTCHAR 0078
ENCODING 120
SWIDTH 470 0
DWIDTH 16 0
BBX 15 18 0 0
BITMAP
301C
781C
383C
1C38
1E70
0EE0
0FE0
07C0
07C0
0FE0
1EE0
1C70
3C70
3838
783C
701E
F01E
E00E
ENDCHAR
STARTCHAR 0079
ENCODING 121
SWIDTH 441 0
DWIDTH 15 0
BBX 15 22 0 -4
BITMAP
E00E
F01E
F01E
F01C
703C
7038
7038
3870
3870
18E0
1CE0
0CC0
0DC0
0FC0
0F80
0F80
0700
0F00
0F00
7E00
FE00
F800
ENDCHAR
STARTCHAR 007A
ENCODING 122
SWIDTH 382 0
DWIDTH 13 0
BBX 13 18 0 0
BITMAP
7FF8
7FF8
7FF0
00F0
01E0
01C0
03C0
0380
0700
0F00
0E00
1E00
3C00
3C00
7800
FFF8
FFF8
FFF8
ENDCHAR
STARTCHAR 007B
ENCODING 123
SWIDTH 352 0
DWIDTH 12 0
BBX 8 33 3 -9
BITMAP
07
1C
18
38
38
38
38
38
38
38
38
38
38
38
38
70
E0
70
70
38
38
38
38
38
38
38
38
38
38
38
38
1C
0E
ENDCHAR
STARTCHAR 007D
ENCODING 125
SWIDTH 352 0
DWIDTH 12 0
BBX 8 33 1 -9
BITMAP
E0
38
18
1C
1C
1C
1C
1C
1C
1C
1C
1C
1C
1C
1C
0E
07
0E
0C
1C
1C
1C
1C
1C
1C
1C
1C
1C
1C
1C
1C
38
70
ENDCHAR
STARTCHAR 00A1
ENCODING 161
SWIDTH 264 0
DWIDTH 9 0
BBX 3 24 2 0
BITMAP
C0
E0
E0
E0
00
00
C0
E0
E0
E0
E0
E0
E0
E0
E0
E0
E0
E0
E0
E0
E0
E0
E0
E0
ENDCHAR
STARTCHAR 00A3
ENCODING 163
SWIDTH 500 0
DWIDTH 17 0
BBX 15 24 1 0
BITMAP
007C
01FC
01FE
038C
0300
0700
0FE0
1FF0
1FE0
0E00
1C00
1C00
1C00
1C00
1C00
1C00
1C18
1C38
1C38
1C38
1C38
7FF8
FFF8
7FF8
ENDCHAR
STARTCHAR 00A7
ENCODING 167
SWIDTH 500 0
DWIDTH 17 0
BBX 15 28 1 -4
BITMAP
0FC0
1FE0
3FF0
7838
7838
7878
7870
3C00
3F00
7FE0
F7F8
E1FC
E03C
E01E
F00E
FE0E
3F9C
0FF8
03F0
00F0
0078
3838
7838
7838
7870
3FF0
1FE0
0F80
ENDCHAR
STARTCHAR 00A8
ENCODING 168
SWIDTH 264 0
DWIDTH 9 0
BBX 7 4 -2 19
BITMAP
E6
EE
EE
EE
ENDCHAR
STARTCHAR 00A9
ENCODING 169
SWIDTH 823 0
DWIDTH 28 0
BBX 24 24 2 0
BITMAP
007F00
0381C0
040030
080018
107E0C
21FF84
43FFC2
47C1E2
470083
8F0001
8E0001
8E0001
8E0001
8E0001
8F0001
C70083
47C1E2
63FFC2
21FF84
307E0C
180018
0E0030
0381C0
00FE00
ENDCHAR
STARTCHAR 00AB
ENCODING 171
SWIDTH 382 0
DWIDTH 13 0
BBX 11 12 1 4
BITMAP
0CE0
1CE0
3DE0
3BC0
7380
E700
E700
7380
39C0
3DE0
1CE0
0840
ENDCHAR
STARTCHAR 00AE
ENCODING 174
SWIDTH 823 0
DWIDTH 28 0
BBX 24 24 2 0
BITMAP
007F00
0381C0
040020
080018
100008
21FF04
41FF82
41C3C2
41C1C2
81C1C1
81C3C1
81FF81
81FF01
81C381
81C381
C1C183
41C182
61C182
21C1C4
11C1C8
180018
060020
0381C0
007E00
ENDCHAR
STARTCHAR 00B4
ENCODING 180
SWIDTH 264 0
DWIDTH 9 0
BBX 5 5 0 19
BITMAP
38
78
70
E0
C0
ENDCHAR
STARTCHAR 00B7
ENCODING 183
SWIDTH 176 0
DWIDTH 6 0
BBX 4 5 1 7
BITMAP
60
F0
F0
F0
60
ENDCHAR
STARTCHAR 00B8
ENCODING 184
SWIDTH 264 0
DWIDTH 9 0
BBX 4 7 0 -7
BITMAP
F0
F0
F0
70
E0
E0
C0
ENDCHAR
STARTCHAR 00BB
ENCODING 187
SWIDTH 382 0
DWIDTH 13 0
BBX 11 12 1 4
BITMAP
6600
E700
7380
3B80
19C0
1CE0
19E0
39C0
7380
7780
E700
4200
ENDCHAR
STARTCHAR 00BF
ENCODING 191
SWIDTH 382 0
DWIDTH 13 0
BBX 10 24 0 0
BITMAP
0E00
0E00
0E00
0E00
0000
1E00
3F00
7F80
3380
0380
0380
0380
0F00
1E00
3C00
7800
7000
E180
E1C0
E1C0
F1C0
7F80
7F80
1E00
ENDCHAR
STARTCHAR 00C0
ENCODING 192
SWIDTH 558 0
DWIDTH 19 0
BBX 19 30 0 1
BITMAP
018000
03C000
01C000
00E000
006000
000000
00E000
01E000
01E000
01F000
01F000
03F000
03B800
07B800
073800
073C00
0F1C00
0E1C00
0E1E00
1E0E00
1C0E00
1C0F00
3FFF00
3FFF00
3FFF80
780380
7003C0
F001C0
F001E0
E001C0
ENDCHAR
STARTCHAR 00C1
ENCODING 193
SWIDTH 558 0
DWIDTH 19 0
BBX 19 30 0 1
BITMAP
003000
007000
00F000
01E000
008000
000000
00E000
01E000
01E000
01F000
01F000
03F000
03B800
07B800
073800
073C00
0F1C00
0E1C00
0E1E00
1E0E00
1C0E00
1C0F00
3FFF00
3FFF00
3FFF80
780380
7003C0
F001C0
F001E0
E001C0
ENDCHAR
STARTCHAR 00C2
ENCODING 194
SWIDTH 558 0
DWIDTH 19 0
BBX 19 30 0 0
BITMAP
00E000
01F000
07F800
071C00
061800
000000
00E000
01E000
01E000
01F000
01F000
03F000
03B800
07B800
073800
073C00
0F1C00
0E1C00
0E1E00
1E0E00
1C0E00
1C0F00
3FFF00
3FFF00
3FFF80
780380
7003C0
F001C0
F001E0
E001C0
ENDCHAR
STARTCHAR 00C3
ENCODING 195
SWIDTH 558 0
DWIDTH 19 0
BBX 18 30 0 0
BITMAP
03CC00
07FC00
07FC00
067C00
000000
000000
00C000
01E000
01E000
01F000
03F000
03F000
03B800
07B800
073800
073C00
0F1C00
0E1C00
0E1E00
1C0E00
1C0E00
1C0F00
3FFF00
3FFF00
3FFF80
780380
7003C0
F001C0
F001C0
E001C0
ENDCHAR
STARTCHAR 00C4
ENCODING 196
SWIDTH 558 0
DWIDTH 19 0
BBX 18 30 0 0
BITMAP
019800
03B800
03B800
03B800
03B800
000000
00E000
00F000
00F000
01F000
01F000
01F800
03B800
03B800
03BC00
07BC00
071C00
0F1E00
0E1E00
0E0E00
0E0F00
1C0F00
1FFF00
3FFF00
3FFF80
380380
780380
7003C0
F001C0
7001C0
ENDCHAR
STARTCHAR 00C5
ENCODING 197
SWIDTH 558 0
DWIDTH 19 0
BBX 19 31 0 0
BITMAP
00E000
01F000
031800
031800
03B800
01E000
000000
00E000
00F000
00F000
01F000
01F800
01F800
03B800
039C00
079C00
071C00
070E00
0E0E00
0E0F00
1C0F00
1C0700
1C0780
3FFF80
3FFF80
7FFF80
7803C0
7001C0
F001E0
F001E0
E000E0
ENDCHAR
STARTCHAR 00C6
ENCODING 198
SWIDTH 705 0
DWIDTH 24 0
BBX 23 24 0 0
BITMAP
007FFE
007FFE
00FFFE
00FC00
01DC00
01DC00
03DC00
039C00
039FFC
071FFC
071FFC
0F1C00
0E1C00
0E1C00
1E1C00
1C1C00
1FFC00
3FFC00
3FFC00
381C00
781C00
701FFE
F01FFE
701FFC
ENDCHAR
STARTCHAR 00C7
ENCODING 199
SWIDTH 529 0
DWIDTH 18 0
BBX 16 32 1 -8
BITMAP
01FE
07FF
0FFF
1E0F
3800
7000
7000
E000
E000
E000
E000
E000
E000
E000
E000
7000
7000
7800
3800
3C00
1F0F
0FFF
07FF
00FC
0000
00F0
00F0
00F0
00F0
00E0
00E0
00C0
ENDCHAR
STARTCHAR 00C8
ENCODING 200
SWIDTH 470 0
DWIDTH 16 0
BBX 12 30 2 1
BITMAP
1800
1C00
1E00
0E00
0600
0000
FFF0
FFF0
FFF0
E000
E000
E000
E000
E000
FFE0
FFF0
FFE0
E000
E000
E000
E000
E000
E000
E000
E000
E000
E000
FFF0
FFF0
FFF0
ENDCHAR
STARTCHAR 00C9
ENCODING 201
SWIDTH 470 0
DWIDTH 16 0
BBX 12 30 2 1
BITMAP
0300
0700
0F00
0E00
0C00
0000
FFF0
FFF0
FFF0
E000
E000
E000
E000
E000
FFE0
FFF0
FFE0
E000
E000
E000
E000
E000
E000
E000
E000
E000
E000
FFF0
FFF0
FFF0
ENDCHAR
STARTCHAR 00CA
ENCODING 202
SWIDTH 470 0
DWIDTH 16 0
BBX 12 30 2 0
BITMAP
0E00
1F00
3F80
71C0
2180
0000
FFF0
FFF0
FFF0
E000
E000
E000
E000
E000
FFE0
FFF0
FFE0
E000
E000
E000
E000
E000
E000
E000
E000
E000
E000
FFF0
FFF0
FFF0
ENDCHAR
STARTCHAR 00CB
ENCODING 203
SWIDTH 470 0
DWIDTH 16 0
BBX 13 30 2 0
BITMAP
38C0
39C0
39C0
39C0
39C0
0000
FFF8
FFF8
FFF8
E000
E000
E000
E000
E000
FFF0
FFF0
FFF0
E000
E000
E000
E000
E000
E000
E000
E000
E000
E000
FFF8
FFF8
FFF8
ENDCHAR
STARTCHAR 00CC
ENCODING 204
SWIDTH 235 0
DWIDTH 8 0
BBX 4 30 1 1
BITMAP
C0
E0
F0
70
10
00
70
70
70
70
70
70
70
70
70
70
70
70
70
70
70
70
70
70
70
70
70
70
70
70
ENDCHAR
STARTCHAR 00CD
ENCODING 205
SWIDTH 235 0
DWIDTH 8 0
BBX 4 30 2 1
BITMAP
30
70
F0
E0
C0
00
E0
E0
E0
E0
E0
E0
E0
E0
E0
E0
E0
E0
E0
E0
E0
E0
E0
E0
E0
E0
E0
E0
E0
E0
ENDCHAR
STARTCHAR 00CE
ENCODING 206
SWIDTH 235 0
DWIDTH 8 0
BBX 9 30 -1 0
BITMAP
1C00
3E00
7F00
E380
4300
0000
1C00
1C00
1C00
1C00
1C00
1C00
1C00
1C00
1C00
1C00
1C00
1C00
1C00
1C00
1C00
1C00
1C00
1C00
1C00
1C00
1C00
1C00
1C00
1C00
ENDCHAR
STARTCHAR 00CF
ENCODING 207
SWIDTH 235 0
DWIDTH 8 0
BBX 7 30 0 0
BITMAP
66
EE
EE
EE
C6
00
38
38
38
38
38
38
38
38
38
38
38
38
38
38
38
38
38
38
38
38
38
38
38
38
ENDCHAR
STARTCHAR 00D1
ENCODING 209
SWIDTH 647 0
DWIDTH 22 0
BBX 17 30 2 0
BITMAP
079800
0FF800
0FF800
0CF800
000000
000000
E00380
E00780
F00380
F00380
F80380
FC0380
FE0380
EE0380
EF0380
E70380
E38380
E3C380
E1C380
E0E380
E0F380
E07380
E07B80
E03F80
E01F80
E01F80
E00F80
E00780
E00780
E00380
ENDCHAR
STARTCHAR 00D2
ENCODING 210
SWIDTH 676 0
DWIDTH 23 0
BBX 21 30 1 1
BITMAP
00C000
01E000
00F000
007000
003000
000000
01FC00
07FF00
0FFF80
1E03C0
3C01E0
7800F0
700070
F00070
E00038
E00038
E00038
E00038
E00038
E00038
E00038
E00038
700078
700070
7800F0
3C01E0
1E07C0
0FFF80
07FF00
01FC00
ENDCHAR
STARTCHAR 00D3
ENCODING 211
SWIDTH 676 0
DWIDTH 23 0
BBX 21 30 1 1
BITMAP
001800
003800
007800
00F000
006000
000000
01FC00
07FF00
0FFF80
1E03C0
3C01E0
7800F0
700070
F00070
E00038
E00038
E00038
E00038
E00038
E00038
E00038
E00038
700078
700070
7800F0
3C01E0
1E07C0
0FFF80
07FF00
01FC00
ENDCHAR
STARTCHAR 00D4
ENCODING 212
SWIDTH 676 0
DWIDTH 23 0
BBX 21 30 1 0
BITMAP
007000
00F800
01FC00
038E00
030E00
000000
01FC00
07FF00
0FFF80
1E03C0
3C01E0
7800F0
700070
F00070
E00038
E00038
E00038
E00038
E00038
E00038
E00038
E00038
700078
700070
7800F0
3C01E0
1E07C0
0FFF80
07FF00
01FC00
ENDCHAR
STARTCHAR 00D5
ENCODING 213
SWIDTH 676 0
DWIDTH 23 0
BBX 21 30 1 0
BITMAP
01E600
03FE00
03FE00
033E00
000400
000000
01FC00
07FF00
0FFF80
1E03C0
3C01E0
7800F0
700070
F00070
E00038
E00038
E00038
E00038
E00038
E00038
E00038
E00038
700078
700070
7800F0
3C01E0
1E07C0
0FFF80
07FF00
01FC00
ENDCHAR
STARTCHAR 00D6
ENCODING 214
SWIDTH 676 0
DWIDTH 23 0
BBX 21 30 1 1
BITMAP
00CC00
01DC00
01DC00
01DC00
009C00
000000
01FC00
07FF00
0FFF80
1E03C0
3C01E0
7800F0
700070
F00070
E00038
E00038
E00038
E00038
E00038
E00038
E00038
E00038
700070
700070
7800F0
3C01E0
1E07C0
0FFF80
07FF00
01FC00
ENDCHAR
STARTCHAR 00D8
ENCODING 216
SWIDTH 676 0
DWIDTH 23 0
BBX 21 24 1 0
BITMAP
01FC30
0FFF38
1FFFF8
3E03F0
3801E0
7003F0
7007F0
E00F70
E00E38
E01E38
E03838
E07838
E0F038
E1E038
E3C038
E78038
6F0038
7E0070
3C0070
3800E0
7C03C0
FFFF80
E7FF00
C1F800
ENDCHAR
STARTCHAR 00D9
ENCODING 217
SWIDTH 617 0
DWIDTH 21 0
BBX 16 30 2 1
BITMAP
0700
0780
0780
01C0
00C0
0000
E007
E007
E007
E007
E007
E007
E007
E007
E007
E007
E007
E007
E007
E007
E007
E007
E007
E007
E007
F00F
F81F
FFFF
7FFF
1FE7
ENDCHAR
STARTCHAR 00DA
ENCODING 218
SWIDTH 617 0
DWIDTH 21 0
BBX 16 30 2 1
BITMAP
00E0
00E0
01E0
03C0
0300
0000
E007
E007
E007
E007
E007
E007
E007
E007
E007
E007
E007
E007
E007
E007
E007
E007
E007
E007
E007
F00F
F81F
FFFF
7FFF
1FE7
ENDCHAR
STARTCHAR 00DB
ENCODING 219
SWIDTH 617 0
DWIDTH 21 0
BBX 16 30 2 0
BITMAP
01C0
03E0
0FF8
1E38
0C38
0000
E007
E007
E007
E007
E007
E007
E007
E007
E007
E007
E007
E007
E007
E007
E007
E007
E007
E007
E007
F00F
F81F
FFFF
7FFF
1FE7
ENDCHAR
STARTCHAR 00DC
ENCODING 220
SWIDTH 617 0
DWIDTH 21 0
BBX 16 30 2 1
BITMAP
0270
0E70
0E70
0E70
0670
0000
E007
E007
E007
E007
E007
E007
E007
E007
E007
E007
E007
E007
E007
E007
E007
E007
E007
E007
E00F
F00F
701F
7FFF
3FFF
0FE7
ENDCHAR
STARTCHAR 00DF
ENCODING 223
SWIDTH 500 0
DWIDTH 17 0
BBX 14 24 2 0
BITMAP
1F80
3FE0
7FE0
7070
E070
E070
E0E0
E3E0
E3C0
E3C0
E1E0
E0F0
E070
E038
E038
E01C
E01C
E01C
E01C
E01C
EE3C
EFFC
EFF0
63E0
ENDCHAR
STARTCHAR 00E0
ENCODING 224
SWIDTH 500 0
DWIDTH 17 0
BBX 14 24 1 1
BITMAP
0700
0780
0380
01C0
00C0
0000
0FE0
1FF8
3FF8
183C
001C
0FFC
1FFC
7FFC
787C
F01C
E01C
E01C
E01C
F01C
783C
3FFC
1FFC
07CC
ENDCHAR
STARTCHAR 00E1
ENCODING 225
SWIDTH 500 0
DWIDTH 17 0
BBX 14 24 1 1
BITMAP
00E0
00E0
01C0
0380
0300
0000
0FE0
1FF8
3FF8
183C
001C
0FFC
1FFC
7FFC
787C
F01C
E01C
E01C
E01C
F01C
783C
3FFC
1FFC
07CC
ENDCHAR
STARTCHAR 00E2
ENCODING 226
SWIDTH 500 0
DWIDTH 17 0
BBX 14 25 1 0
BITMAP
0180
03C0
07E0
0E70
0E70
0420
0000
0FE0
1FF8
3FF8
183C
001C
0FFC
1FFC
7FFC
787C
F01C
E01C
E01C
E01C
F01C
783C
3FFC
1FFC
07CC
ENDCHAR
STARTCHAR 00E3
ENCODING 227
SWIDTH 500 0
DWIDTH 17 0
BBX 14 24 1 0
BITMAP
0FD0
0FF0
0FF0
18E0
0000
0000
0FE0
1FF8
3FF8
183C
001C
0FFC
1FFC
7FFC
787C
F01C
E01C
E01C
E01C
F01C
783C
3FFC
1FFC
07CC
ENDCHAR
STARTCHAR 00E4
ENCODING 228
SWIDTH 500 0
DWIDTH 17 0
BBX 14 24 1 1
BITMAP
0E60
0E60
0E60
0E60
0000
0000
0FC0
1FF0
3FF8
183C
001C
0FFC
3FFC
7FFC
703C
E01C
E01C
E01C
E01C
F01C
783C
3FFC
3FFC
0F98
ENDCHAR
STARTCHAR 00E5
ENCODING 229
SWIDTH 500 0
DWIDTH 17 0
BBX 14 25 1 0
BITMAP
01C0
03E0
0660
0620
0660
03C0
0000
0FE0
1FF8
3FF8
183C
001C
0FFC
1FFC
7FFC
787C
F01C
E01C
E01C
E01C
F01C
787C
7FFC
3FFC
1FFC
ENDCHAR
STARTCHAR 00E6
ENCODING 230
SWIDTH 794 0
DWIDTH 27 0
BBX 25 18 1 0
BITMAP
0FE3F800
1FF7FC00
1FFFFE00
003E0F00
001C0700
0FFFFF00
3FFFFF00
3FFFFF00
703C0000
601C0000
E01C0000
E01C0000
E01C0000
E01E0000
603F0000
7FFFFF00
3FF3FF80
0FC0FF00
ENDCHAR
STARTCHAR 00E7
ENCODING 231
SWIDTH 382 0
DWIDTH 13 0
BBX 10 25 1 -8
BITMAP
0FC0
3FC0
7FC0
7800
F000
E000
E000
E000
E000
E000
E000
E000
7000
7800
3C00
1FC0
0FC0
03C0
0600
0700
0700
0700
0700
0600
0600
ENDCHAR
STARTCHAR 00E8
ENCODING 232
SWIDTH 470 0
DWIDTH 16 0
BBX 14 24 1 1
BITMAP
0C00
0E00
0F00
0700
0300
0000
0F80
1FE0
3FF0
6078
6038
FFF8
FFF8
FFF8
E000
E000
E000
E000
7000
7000
3800
1FF8
0FFC
01F8
ENDCHAR
STARTCHAR 00E9
ENCODING 233
SWIDTH 470 0
DWIDTH 16 0
BBX 14 24 1 1
BITMAP
0180
0380
0780
0700
0600
0000
0F80
1FE0
3FF0
6078
6038
FFF8
FFF8
FFF8
E000
E000
E000
E000
7000
7000
3800
1FF8
0FFC
01F8
ENDCHAR
STARTCHAR 00EA
ENCODING 234
SWIDTH 470 0
DWIDTH 16 0
BBX 14 25 1 0
BITMAP
0200
0700
0F80
1DC0
18C0
08C0
0000
0F80
1FE0
3FF0
6078
6038
FFF8
FFF8
FFF8
E000
E000
E000
E000
7000
7000
3800
1FF8
0FFC
01F8
ENDCHAR
STARTCHAR 00EB
ENCODING 235
SWIDTH 470 0
DWIDTH 16 0
BBX 15 24 1 0
BITMAP
0E60
0EE0
0EE0
0EE0
0000
0000
0FE0
1FF0
3FF8
701C
601C
FFFC
FFFC
FFFC
E000
E000
E000
F000
7000
7800
3C00
1FFC
07FE
01FC
ENDCHAR
STARTCHAR 00EC
ENCODING 236
SWIDTH 205 0
DWIDTH 7 0
BBX 4 24 1 1
BITMAP
C0
E0
70
30
10
00
70
70
70
70
70
70
70
70
70
70
70
70
70
70
70
70
70
30
ENDCHAR
STARTCHAR 00ED
ENCODING 237
SWIDTH 205 0
DWIDTH 7 0
BBX 4 24 2 1
BITMAP
70
70
E0
C0
80
00
E0
E0
E0
E0
E0
E0
E0
E0
E0
E0
E0
E0
E0
E0
E0
E0
E0
60
ENDCHAR
STARTCHAR 00EE
ENCODING 238
SWIDTH 205 0
DWIDTH 7 0
BBX 7 25 0 0
BITMAP
10
38
7C
EE
C6
00
00
38
38
38
38
38
38
38
38
38
38
38
38
38
38
38
38
38
18
ENDCHAR
STARTCHAR 00EF
ENCODING 239
SWIDTH 205 0
DWIDTH 7 0
BBX 7 24 0 0
BITMAP
4C
EE
EE
EE
00
00
38
38
38
38
38
38
38
38
38
38
38
38
38
38
38
38
38
18
ENDCHAR
STARTCHAR 00F1
ENCODING 241
SWIDTH 470 0
DWIDTH 16 0
BBX 12 24 2 1
BITMAP
3F60
3FE0
3FE0
2780
0000
0000
CFC0
FFE0
FFF0
F0F0
E070
E070
E070
E070
E070
E070
E070
E070
E070
E070
E070
E070
E070
E070
ENDCHAR
STARTCHAR 00F2
ENCODING 242
SWIDTH 529 0
DWIDTH 18 0
BBX 16 24 1 1
BITMAP
0700
0780
03C0
01C0
00C0
0000
07F0
1FF8
3FFC
781E
7006
F007
E007
E007
E007
E007
E007
F007
F007
780E
3C0E
3FFC
0FF8
07E0
ENDCHAR
STARTCHAR 00F3
ENCODING 243
SWIDTH 529 0
DWIDTH 18 0
BBX 16 24 1 1
BITMAP
0060
00F0
01E0
03C0
0300
0000
07F0
1FF8
3FFC
781E
7006
F007
E007
E007
E007
E007
E007
F007
F007
780E
3C0E
3FFC
0FF8
07E0
ENDCHAR
STARTCHAR 00F4
ENCODING 244
SWIDTH 529 0
DWIDTH 18 0
BBX 16 25 1 0
BITMAP
0180
01C0
03E0
0770
0E38
0430
0000
07F0
1FF8
3FFC
781E
7006
F007
E007
E007
E007
E007
E007
F007
F007
780E
3C0E
3FFC
0FF8
07E0
ENDCHAR
STARTCHAR 00F5
ENCODING 245
SWIDTH 529 0
DWIDTH 18 0
BBX 16 24 1 0
BITMAP
0FD8
0FF8
0FF8
08F0
0000
0000
07F0
1FF8
3FFC
781E
7006
F007
E007
E007
E007
E007
E007
F007
F007
780E
3C0E
3FFC
0FF8
07E0
ENDCHAR
STARTCHAR 00F6
ENCODING 246
SWIDTH 529 0
DWIDTH 18 0
BBX 16 24 1 1
BITMAP
0670
0E70
0E70
0E70
0000
0000
0FF0
1FF8
3FFC
781E
700E
E006
E007
E007
E007
E007
E007
E007
E007
700E
381E
3FFC
1FF8
07E0
ENDCHAR
STARTCHAR 00F8
ENCODING 248
SWIDTH 529 0
DWIDTH 18 0
BBX 16 18 1 0
BITMAP
0FE7
1FFF
3FFE
783E
703F
E077
E0E7
E1C7
E3C7
E387
E707
EE07
FC07
780E
3C1E
7FFC
FFF8
C3E0
ENDCHAR
STARTCHAR 00F9
ENCODING 249
SWIDTH 470 0
DWIDTH 16 0
BBX 12 24 2 1
BITMAP
1C00
1E00
0F00
0700
0300
0000
E070
E070
E070
E070
E070
E070
E070
E070
E070
E070
E070
E070
E070
E070
F0F0
7FF0
7FF0
1F30
ENDCHAR
STARTCHAR 00FA
ENCODING 250
SWIDTH 470 0
DWIDTH 16 0
BBX 12 24 2 1
BITMAP
0380
0780
0F00
0E00
0C00
0000
E070
E070
E070
E070
E070
E070
E070
E070
E070
E070
E070
E070
E070
E070
F0F0
7FF0
7FF0
1F30
ENDCHAR
STARTCHAR 00FB
ENCODING 251
SWIDTH 470 0
DWIDTH 16 0
BBX 12 25 2 0
BITMAP
0600
0F00
1F80
3DC0
39C0
1080
0000
E070
E070
E070
E070
E070
E070
E070
E070
E070
E070
E070
E070
E070
E070
F0F0
7FF0
7FF0
1F30
ENDCHAR
STARTCHAR 00FC
ENCODING 252
SWIDTH 470 0
DWIDTH 16 0
BBX 12 24 2 0
BITMAP
1980
3980
3980
3980
0000
0000
E030
E070
E070
E070
E070
E070
E070
E070
E070
E070
E070
E070
E070
E070
F1F0
FFF0
7FF0
3E70
ENDCHAR
STARTCHAR 00FF
ENCODING 255
SWIDTH 441 0
DWIDTH 15 0
BBX 15 28 0 -4
BITMAP
0CE0
0CE0
0CE0
0CE0
0000
0000
E00E
F01E
F01E
F01C
703C
7038
7038
3870
3870
18E0
1CE0
0CC0
0DC0
0FC0
0F80
0F80
0700
0F00
0F00
7E00
FE00
F800
ENDCHAR
STARTCHAR 0131
ENCODING 305
SWIDTH 205 0
DWIDTH 7 0
BBX 3 18 2 0
BITMAP
E0
E0
E0
E0
E0
E0
E0
E0
E0
E0
E0
E0
E0
E0
E0
E0
E0
60
ENDCHAR
STARTCHAR 0152
ENCODING 338
SWIDTH 970 0
DWIDTH 33 0
BBX 30 24 1 0
BITMAP
01FE3FFC
07FFBFFC
0FFFFFFC
1E03F800
3C00F800
78007800
70007800
70003800
E0003FF8
E0003FFC
E0003FF8
E0003800
E0003800
E0003800
E0003800
E0003800
60003800
70007800
7800F800
3C01F800
1F07F800
0FFFBFFC
07FF3FFC
03FE3FFC
ENDCHAR
STARTCHAR 0153
ENCODING 339
SWIDTH 882 0
DWIDTH 30 0
BBX 27 18 1 0
BITMAP
0FC07E00
1FF8FF00
3FFDFF80
781F83C0
700F01C0
E007FFC0
E007FFC0
E007FFC0
E0070000
E0070000
E0070000
E0070000
F00F0000
F00F8000
7C1FE000
3FFDFFC0
1FF87FE0
07E01FC0
ENDCHAR
STARTCHAR 0178
ENCODING 376
SWIDTH 470 0
DWIDTH 16 0
BBX 14 30 1 0
BITMAP
0CC0
1CC0
1CC0
1CC0
0CC0
0000
E01C
E03C
F03C
7078
3870
3CF0
1CE0
1FC0
0F80
0780
0700
0700
0700
0700
0700
0700
0700
0700
0700
0700
0700
0700
0700
0700
ENDCHAR
STARTCHAR 02C6
ENCODING 710
SWIDTH 264 0
DWIDTH 9 0
BBX 7 5 -2 19
BITMAP
10
38
7C
EE
C6
ENDCHAR
STARTCHAR 02C7
ENCODING 711
SWIDTH 264 0
DWIDTH 9 0
BBX 7 5 -2 19
BITMAP
C6
EE
7C
38
18
ENDCHAR
STARTCHAR 02DC
ENCODING 732
SWIDTH 264 0
DWIDTH 9 0
BBX 9 4 -3 20
BITMAP
7D80
FF80
FF80
CF00
ENDCHAR
STARTCHAR 2013
ENCODING 8211
SWIDTH 500 0
DWIDTH 17 0
BBX 15 3 1 10
BITMAP
FFFC
FFFE
FFFC
ENDCHAR
STARTCHAR 2014
ENCODING 8212
SWIDTH 676 0
DWIDTH 23 0
BBX 22 3 0 8
BITMAP
FFFFFC
FFFFFC
FFFFFC
ENDCHAR
STARTCHAR 2018
ENCODING 8216
SWIDTH 205 0
DWIDTH 7 0
BBX 4 7 2 16
BITMAP
30
70
F0
F0
F0
F0
60
ENDCHAR
STARTCHAR 2019
ENCODING 8217
SWIDTH 205 0
DWIDTH 7 0
BBX 4 7 2 16
BITMAP
70
F0
F0
F0
F0
E0
C0
ENDCHAR
STARTCHAR 201A
ENCODING 8218
SWIDTH 205 0
DWIDTH 7 0
BBX 4 8 2 -3
BITMAP
70
F0
F0
F0
E0
E0
E0
C0
ENDCHAR
STARTCHAR 201C
ENCODING 8220
SWIDTH 352 0
DWIDTH 12 0
BBX 10 7 1 18
BITMAP
30C0
71C0
F3C0
F3C0
F3C0
F3C0
E380
ENDCHAR
STARTCHAR 201D
ENCODING 8221
SWIDTH 352 0
DWIDTH 12 0
BBX 9 7 2 17
BITMAP
7780
F780
F780
F780
F700
E700
C600
ENDCHAR
STARTCHAR 201E
ENCODING 8222
SWIDTH 352 0
DWIDTH 12 0
BBX 9 7 2 -2
BITMAP
F780
F780
F780
F780
F700
E700
C600
ENDCHAR
STARTCHAR 2020
ENCODING 8224
SWIDTH 411 0
DWIDTH 14 0
BBX 12 24 0 0
BITMAP
0300
0700
0700
0700
0700
0700
7FF0
FFF0
7FF0
0700
0700
0700
0700
0700
0700
0700
0700
0700
0700
0700
0700
0700
0700
0700
ENDCHAR
STARTCHAR 2022
ENCODING 8226
SWIDTH 323 0
DWIDTH 11 0
BBX 9 9 1 8
BITMAP
3E00
7F00
7F80
FF80
FF80
FF80
7F00
3E00
0800
ENDCHAR
STARTCHAR 2026
ENCODING 8230
SWIDTH 1000 0
DWIDTH 34 0
BBX 26 4 4 0
BITMAP
600C0180
F01E03C0
F01E03C0
600C0180
ENDCHAR
STARTCHAR 2044
ENCODING 8260
SWIDTH 117 0
DWIDTH 4 0
BBX 10 24 -3 0
BITMAP
00C0
00C0
00C0
0080
0180
0100
0100
0300
0200
0600
0600
0C00
0C00
0800
1800
1800
1000
3000
3000
6000
6000
4000
C000
C000
ENDCHAR
STARTCHAR 2122
ENCODING 8482
SWIDTH 676 0
DWIDTH 23 0
BBX 21 11 0 12
BITMAP
FFB838
FFB838
0C3C38
0C3C78
0C3458
0C3658
0C36D8
0C32D8
0C3398
0C3398
0C3398
ENDCHAR
STARTCHAR 2212
ENCODING 8722
SWIDTH 676 0
DWIDTH 23 0
BBX 22 3 0 8
BITMAP
FFFFFC
FFFFFC
FFFFFC
ENDCHAR
STARTCHAR F6C9
ENCODING 63177
SWIDTH 264 0
DWIDTH 9 0
BBX 5 5 0 26
BITMAP
38
38
70
E0
C0
ENDCHAR
STARTCHAR F6CA
ENCODING 63178
SWIDTH 264 0
DWIDTH 9 0
BBX 9 5 -3 26
BITMAP
6180
F380
7F00
3E00
1C00
ENDCHAR
STARTCHAR F6CB
ENCODING 63179
SWIDTH 264 0
DWIDTH 9 0
BBX 7 5 -2 25
BITMAP
E6
EE
EE
EE
6E
ENDCHAR
STARTCHAR F6CE
ENCODING 63182
SWIDTH 264 0
DWIDTH 9 0
BBX 5 5 -1 26
BITMAP
E0
E0
70
38
18
ENDCHAR
STARTCHAR F6DC
ENCODING 63196
SWIDTH 323 0
DWIDTH 11 0
BBX 7 24 1 0
BITMAP
06
1E
3E
FE
FE
CE
0E
0E
0E
0E
0E
0E
0E
0E
0E
0E
0E
0E
0E
0E
0E
0E
0E
0E
ENDCHAR
STARTCHAR FB01
ENCODING 64257
SWIDTH 441 0
DWIDTH 15 0
BBX 12 24 0 0
BITMAP
0F70
1F70
3F70
3870
3860
3800
FF70
FF70
FF70
3870
3870
3870
3870
3870
3870
3870
3870
3870
3870
3870
3870
3870
3870
1820
ENDCHAR
STARTCHAR FB02
ENCODING 64258
SWIDTH 441 0
DWIDTH 15 0
BBX 13 24 0 0
BITMAP
0F38
1FB8
3FB8
3838
3838
3838
7F38
FFB8
FFB8
3838
3838
3838
3838
3838
3838
3838
3838
3838
3838
3838
3838
3838
3838
1830
ENDCHAR
ENDFONT
